<?xml version="1.0" encoding="utf-8"?>
<!-- Generator: Adobe Illustrator 16.0.0, SVG Export Plug-In . SVG Version: 6.00 Build 0)  -->
<!DOCTYPE svg PUBLIC "-//W3C//DTD SVG 1.1//EN" "http://www.w3.org/Graphics/SVG/1.1/DTD/svg11.dtd">
<svg version="1.1" id="Layer_1" xmlns="http://www.w3.org/2000/svg" xmlns:xlink="http://www.w3.org/1999/xlink" x="0px" y="0px" viewBox="0 0 1080.0019531 1077.7988281"
	 style="enable-background:new 0 0 1080.0019531 1077.7988281;" xml:space="preserve">
<g>
	<g>
		<g>
			<g>
				<path d="M778.8261719,393.4335938c-93.1464844,0-168.9140625,75.7675781-168.9140625,168.9140625
					s75.7675781,168.9140625,168.9140625,168.9140625s168.9140625-75.7675781,168.9140625-168.9140625
					S871.9726563,393.4335938,778.8261719,393.4335938z"/>
				<path d="M233.0263672,967.3476563L110.4511719,844.7734375l20.3828125-20.3828125
					l122.5751953,122.5761719L233.0263672,967.3476563z M1058.6044922,222.3232422L857.0146484,20.734375
					c-27.6083984-27.6459961-75.8056641-27.6459961-103.4130859,0L221.0898438,553.2460938
					c-18.5058594,18.5058594-24.7548828,46.4140625-15.9335938,71.0566406
					c9.4589844,26.40625,33.8388672,44.0117188,65.21875,47.0507813c2.9658203,0.3007813,4.2607422,2.2148438,4.8242188,3.7910156
					c0.46875,1.3339844,0.9375,3.9414063-1.3896484,6.2695313L157.390625,797.8339844l122.5751953,122.5742188
					l105.796875-105.796875c2.7587891-2.7578125,5.9677734-4.1835938,9.5341797-4.1835938
					c5.7431641,0,12.9121094,3.9960938,15.1835938,12.7988281c8.4082031,32.8632813,35.5654297,54.953125,67.5654297,54.953125
					c18.1679688,0,35.2285156-7.0742188,48.0849609-19.9316406l130.1386719-130.1582031
					c-50.7685547-37.6484375-83.875-97.8183594-83.875-165.7226563c0-113.8300781,92.6210938-206.4511719,206.4501953-206.4511719
					c67.9033203,0,128.0927734,33.1074219,165.7236328,83.875l114.0546875-114.0351563
					C1087.1318359,297.2470703,1087.1318359,250.8330078,1058.6044922,222.3232422z M16.8535156,938.3691406
					C5.9873047,949.2363281,0,963.6875,0,979.0976563c0,15.3710938,5.9873047,29.8417969,16.8535156,40.7070313l41.140625,41.140625
					c10.8662109,10.8671875,25.3369141,16.8535156,40.7080078,16.8535156s29.8417969-5.9863281,40.7080078-16.8535156
					l67.078125-67.078125L83.9130859,871.2929688L16.8535156,938.3691406z"/>
			</g>
		</g>
	</g>
</g>
</svg>
