<?xml version="1.0" encoding="utf-8"?>
<!-- Generator: Adobe Illustrator 16.0.0, SVG Export Plug-In . SVG Version: 6.00 Build 0)  -->
<!DOCTYPE svg PUBLIC "-//W3C//DTD SVG 1.1//EN" "http://www.w3.org/Graphics/SVG/1.1/DTD/svg11.dtd">
<svg version="1.1" id="Layer_1" xmlns="http://www.w3.org/2000/svg" xmlns:xlink="http://www.w3.org/1999/xlink" x="0px" y="0px" viewBox="0 0 512.0004883 515.8286133"
	 style="enable-background:new 0 0 512.0004883 515.8286133;" xml:space="preserve">
<path d="M53.0361328,326.0473633l-24.6206055,24.5839844
	c-37.8857422,37.8300781-37.8891602,99.0693359,0,136.9023438c37.78125,37.7255859,99.2529297,37.7265625,137.034668,0
	l24.6547852-24.6181641L53.0361328,326.0473633z"/>
<path d="M489.9790039,202.3540039c-17.7568359-17.730957-42.7119141-24.8320313-66.2080078-20.75
	c8.3271484-52.4526367-37.1669922-97.3129883-89.2832031-88.8652344c4.0556641-23.6777344-3.1494141-48.7944336-21.0625-66.6826172
	C275.3208008-11.9912109,210.6450195,0.5966797,189.671875,50.222168L79.7558594,310.3295898l22.9047852,22.8701172
	l20.6289063-48.8164063l21.9389648,21.90625l-29.9970703,39.4628906l21.4238281,21.3935547l29.9970703-39.4628906
	l21.8105469,21.7783203l-39.5195313,29.9541016l21.4326172,21.4023438l39.5200195-29.9541016l21.6308594,21.5986328
	l-48.6459961,20.8408203l22.8740234,22.8408203l260.7163086-111.6962891
	C515.2719727,303.5395508,527.574707,239.8896484,489.9790039,202.3540039z M380.7661133,135.699707
	c20.4765625,20.4458008,18.1523438,54.253418-4.9003906,71.7241211
	c-6.3085938,4.7822266-26.1484375,19.8188477-32.4970703,24.6298828l-59.1376953-59.0512695
	c12.4726563-16.4082031,12.1054688-15.9248047,24.6464844-32.4238281
	C326.3930664,117.5498047,360.2866211,115.2495117,380.7661133,135.699707z M319.2299805,250.3486328l-41.2451172,31.2612305
	l-43.3833008-43.3203125l31.3071289-41.1855469L319.2299805,250.3486328z M217.3056641,61.902832
	c12.7167969-30.0947266,51.7963867-37.7104492,74.9233398-14.6137695
	c16.1650391,16.1411133,17.9335938,42.0239258,4.1132813,60.2045898
	c-14.4970703,19.0717773-5.7851563,7.6088867-33.5361328,44.1166992l-58.6572266-58.5727539L217.3056641,61.902832z
	 M191.5488281,122.8544922l52.9365234,52.8588867l-31.3066406,41.1855469l-43.159668-43.0966797L191.5488281,122.8544922z
	 M163.550293,282.1879883l-27.6611328-27.621582l21.5302734-50.9482422l37.4375,37.3823242L163.550293,282.1879883z
	 M212.6010742,331.1665039l-27.6269531-27.5878906l31.3066406-41.1855469l37.565918,37.5117188L212.6010742,331.1665039z
	 M261.2368164,379.7319336l-27.2041016-27.1650391l41.2451172-31.2607422l36.7285156,36.6748047L261.2368164,379.7319336z
	 M341.7192383,345.2514648l-42.3027344-42.2402344l41.2460938-31.2607422l51.8261719,51.7509766L341.7192383,345.2514648z
	 M454.6567383,296.8676758l-32.4550781,13.9042969l-57.4003906-57.3164063
	c26.4970703-20.0830078,19.0898438-14.4697266,44.7265625-33.8989258
	c17.8964844-13.5639648,43.3701172-11.8305664,59.2548828,4.03125
	C491.4008789,246.1694336,484.050293,284.2739258,454.6567383,296.8676758z"/>
</svg>
