<?xml version="1.0" encoding="utf-8"?>
<!-- Generator: Adobe Illustrator 16.0.0, SVG Export Plug-In . SVG Version: 6.00 Build 0)  -->
<!DOCTYPE svg PUBLIC "-//W3C//DTD SVG 1.1//EN" "http://www.w3.org/Graphics/SVG/1.1/DTD/svg11.dtd">
<svg version="1.1" id="Layer_1" xmlns="http://www.w3.org/2000/svg" xmlns:xlink="http://www.w3.org/1999/xlink" x="0px" y="0px" viewBox="0 0 1080 1079.1171875" style="enable-background:new 0 0 1080 1079.1171875;"
	 xml:space="preserve">
<g>
	<g>
		<g>
			<path d="M150.1201172,531.9477539c4.2451172,95.859375,45.84375,180.2294922,117.2353516,237.65625
				c74.0917969,59.6049805,171.3105469,84.1831055,266.6113281,67.3510742
				c56.5693359-9.9628906,112.8789063-39.1411133,162.8007813-84.3520508
				c30.3144531-27.4658203,57.9287109-58.1152344,82.0800781-91.0742188
				c70.6835938-96.4179688,88.5595703-219.6865234,46.6445313-321.7089844
				c-48.4697266-117.9438477-154.9052734-191.7001953-284.8964844-197.4355469
				c-86.1582031,5.362793-198.2910156-34.6533203-257.0029297-78.3930664
				c-92.2470703,49.9780273-168.3867188,126.0249023-218.4580078,218.1972656
				C107.2177734,335.0522461,156.1347656,437.3549805,150.1201172,531.9477539z"/>
			<path d="M540-0.8833008c-77.4990234,0-151.1816406,16.5351563-217.8623047,46.0673828
				c52.5664063,32.5302734,142.6904297,64.9121094,217.0058594,59.9775391l1.0244141-0.074707l1.0048828,0.0375977
				c145.3720703,6.0141602,264.5439453,88.4667969,318.7861328,220.5429688
				c46.8125,113.9404297,27.2607422,251.0625-51.0390625,357.8896484c-25.640625,34.9697266-54.9492188,67.5-87.1259766,96.6601563
				c-55.1357422,49.940918-117.8505859,82.2475586-181.328125,93.4389648
				c-21.8427734,3.8535156-43.7773438,5.734375-65.5449219,5.734375c-83.8496094,0-165.4453125-28.0800781-230.8964844-80.7387695
				c-80.125-64.4648438-126.6953125-158.9833984-131.1455078-266.1269531l-0.0371094-1.0244141l0.0556641-1.0234375
				c5.0458984-74.4648438-30.4267578-159.5419922-66.1220703-210.8242188C16.8144531,386.762207,0,461.0024414,0,539.1166992
				c0,297.7641602,242.2548828,540.0004883,540,540.0004883s540-242.2363281,540-540.0004883
				C1080,241.3530273,837.7451172-0.8833008,540-0.8833008z"/>
		</g>
	</g>
</g>
</svg>
