<?xml version="1.0" encoding="utf-8"?>
<!-- Generator: Adobe Illustrator 16.0.0, SVG Export Plug-In . SVG Version: 6.00 Build 0)  -->
<!DOCTYPE svg PUBLIC "-//W3C//DTD SVG 1.1//EN" "http://www.w3.org/Graphics/SVG/1.1/DTD/svg11.dtd">
<svg version="1.1" id="Layer_1" xmlns="http://www.w3.org/2000/svg" xmlns:xlink="http://www.w3.org/1999/xlink" x="0px" y="0px" viewBox="0 0 399.1054688 395.6181641"
	 style="enable-background:new 0 0 399.1054688 395.6181641;" xml:space="preserve">
<path d="M208.0820313,0
	c7.1376953,0.9873047,14.3286133,1.6933594,21.3984375,3.0380859c8.1616211,1.5507813,16.2158203,3.6650391,23.875,5.4316406
	c1.3188477,4.8193359-0.4316406,6.0556641-4.3198242,6.8515625c-43.5317383,8.9121094-78.3500977,31.9345703-105.9711914,66.2919922
	c-18.5239258,23.0410156-32.4223633,48.8046875-43.5722656,76.0654297c-1.7890625,4.375-5.2412109,5.3603516-8.8466797,2.6357422
	c-12.1035156-9.1464844-23.4150391-19.0615234-33.28125-30.6298828c-2.6640625-3.1240234-3.2900391-5.8017578-1.5927734-9.7597656
	c18.8759766-44.0205078,48.6152344-78.7617188,89.0869141-104.2167969
	c13.4609375-8.4667969,28.3574219-13.4248047,44.2548828-15.1201172c0.5878906-0.0625,1.1474609-0.3857422,1.7207031-0.5878906
	C196.5830078,0,202.3330078,0,208.0820313,0z"/>
<path d="M180.3354492,383.9521484
	c-6.3735352-1.0019531-12.7670898-1.8857422-19.1147461-3.0283203
	c-13.1459961-2.3662109-25.9082031-6.0615234-38.4765625-11.4013672c0.5498047-1.7548828,1.0488281-3.3447266,1.4882813-4.7480469
	c9.1748047,1.2451172,18.0136719,2.9980469,26.9238281,3.5214844c13.1762695,0.7744141,26.402832,0.6972656,39.6088867,0.9257813
	c2.0649414,0.0351563,3.9516602-0.546875,5.4790039,1.8925781c1.5898438,2.5380859,0.0532227,4.0136719-1.0058594,5.6728516
	c-1.5800781,2.4765625-3.4233398,4.7851563-5.1542969,7.1650391
	C186.8344727,383.9521484,183.5849609,383.9521484,180.3354492,383.9521484z"/>
<path d="M314.2802734,269.9326172
	c0.0634766,26.5439453-7.6035156,50.9755859-19.6333008,74.2714844c-0.7446289,1.4423828-1.6860352,2.8300781-2.1508789,4.3603516
	c-2.4873047,8.1904297-8.5678711,12.1503906-16.1699219,15.0908203
	c-17.0371094,6.5888672-34.3408203,12.1425781-52.3115234,15.5107422c-1.8798828,0.3515625-3.6914063,1.0507813-5.2871094-1.2421875
	c-1.5366211-2.2089844-0.5581055-3.6347656,0.4487305-5.390625c16.6694336-29.0673828,25.4609375-60.1962891,23.3984375-93.8417969
	c-1.9516602-31.8330078-11.5083008-60.9667969-32.769043-85.4853516c-2.0361328-2.3486328-2.5073242-4.5244141-1.2412109-7.4667969
	c9.3325195-21.6884766,23.7929688-39.4560547,41.5439453-54.7333984c2.3183594-1.9960938,4.6357422-1.6152344,6.5351563,0.6132813
	c29.4599609,34.5566406,49.706543,73.4960938,56.1665039,118.8964844
	C313.722168,256.9277344,313.8105469,263.4570313,314.2802734,269.9326172z"/>
<path d="M169.4760742,185.1328125
	c-17.6708984-0.4101563-34.7446289-3.7412109-51.3442383-9.6464844c-3.3457031-1.1894531-4.4121094-3.1259766-3.3115234-6.2460938
	c13.5693359-38.46875,34.2373047-72.3359375,64.8613281-99.703125
	c26.7773438-23.9306641,58.1630859-36.7695313,93.987793-38.8554688c6.1108398-0.3554688,12.2104492-0.9589844,18.324707-1.1425781
	c1.9882813-0.0585938,4.3652344,0.3271484,5.9541016,1.4072266c18.3037109,12.4375,34.2900391,27.4658203,48.5625,44.3271484
	c0.6972656,0.8242188,0.8320313,3.0087891,0.2314453,3.8320313c-0.8251953,1.1318359-2.6049805,2.2080078-3.9736328,2.2050781
	c-19.140625-0.0439453-37.9423828,2.4658203-55.9941406,8.7568359
	c-44.8530273,15.6308594-78.2363281,43.7773438-95.2910156,89.2041016c-1.09375,2.9130859-2.7353516,4.4863281-5.953125,4.6455078
	C180.171875,184.1806641,174.8261719,184.7128906,169.4760742,185.1328125z"/>
<path d="M169.1933594,279.25
	c-31.0849609-0.1865234-61.1064453-5.5322266-89.4023438-18.8583984
	c-24.9072266-11.7304688-44.7182617-29.4257813-60.0693359-52.1933594
	c-4.0488281-6.0048828-8.1123047-12.0068359-11.9121094-18.1689453c-1.03125-1.671875-1.7089844-3.9638672-1.5649414-5.8974609
	c1.6274414-21.7988281,6.7036133-42.8613281,14.1645508-63.3583984c0.4462891-1.2246094,2.3759766-2.6308594,3.6254883-2.640625
	c1.2612305-0.0087891,3.0258789,1.3369141,3.7299805,2.5693359c13.6152344,23.8251953,31.3613281,43.9013672,54.3505859,58.9775391
	c26.3344727,17.2705078,55.2373047,26.4580078,86.9453125,25.7001953c5.5957031-0.1337891,11.265625-0.6875,16.7285156-1.8554688
	c4.7915039-1.0244141,7.6030273,0.3212891,10.3481445,4.2509766c12.8139648,18.3417969,20.6079102,38.671875,24.6992188,60.5332031
	c0.8144531,4.3515625-0.3110352,6.1162109-4.6777344,6.6396484c-15.6000977,1.8720703-31.222168,3.5625-46.8364258,5.3222656
	C169.2792969,279.9306641,169.2363281,279.5898438,169.1933594,279.25z"/>
<path d="M326.59375,332.4404297
	c-2.6025391-1.8945313-5.4091797-2.2119141-4.0463867-6.1835938c14.2475586-41.5117188,12.2563477-82.7158203-3.0053711-123.5107422
	c-10.5424805-28.1787109-26.1176758-53.53125-44.1826172-77.4404297c-0.9013672-1.1943359-2.1845703-2.2695313-2.6113281-3.6162109
	c-0.7666016-2.4160156-0.3071289-4.4902344,2.4814453-5.7568359c14.7216797-6.6865234,29.9487305-11.6943359,45.9038086-14.4648438
	c3.0942383-0.5371094,5.1333008,0.4306641,7.0537109,2.8876953c22.0527344,28.2001953,35.3867188,60.2910156,42.6113281,95.1142578
	c4.0131836,19.3417969,5.4350586,38.7529297,1.8901367,58.3857422
	c-3.6420898,20.1669922-13.6328125,37.109375-26.3579102,52.6210938
	C340.1035156,318.0683594,333.2124023,325.1162109,326.59375,332.4404297z"/>
<path d="M179.4267578,352.3896484
	c-39.3964844-0.9941406-74.2304688-8.5996094-106.8046875-25.3798828
	c-27.1269531-13.9746094-44.8647461-36.078125-54.9492188-64.546875
	c-2.9936523-8.4501953-5.3037109-17.1425781-7.9414063-25.7207031c-0.5551758-1.8066406-0.6694336-3.1728516,1.5126953-4.2373047
	c2.1445313-1.046875,3.2548828-0.5185547,4.6948242,1.1484375c28.5307617,33.0400391,64.894043,52.0107422,107.5478516,59.4902344
	c29.4238281,5.1601563,58.9526367,4.6005859,88.503418,1.1279297c1.4892578-0.1748047,2.9785156-0.3515625,4.4716797-0.4833984
	c3.3603516-0.2958984,5.3588867,1.7080078,4.9863281,5.1318359c-1.6953125,15.5625-4.7880859,30.8007813-10.2050781,45.5488281
	c-1.3740234,3.7402344-3.2753906,5.7050781-7.4726563,5.9365234
	C194.6757813,350.9082031,185.6064453,351.8642578,179.4267578,352.3896484z"/>
<path d="M385.9853516,165.4892578
	c-1.765625,0.4208984-3.2924805,0.7851563-4.6831055,1.1171875c-3.8642578-9.2363281-7.1054688-18.4306641-11.4697266-27.0576172
	c-5.7329102-11.3320313-12.315918-22.2363281-18.6225586-33.2724609c-0.9643555-1.6865234-1.8154297-2.9619141-0.7124023-5.0771484
	c1.144043-2.1933594,2.8325195-1.8310547,4.6582031-2.1259766c6.8818359-1.1123047,10.6191406,1.8808594,13.4780273,8.1240234
	c8.0488281,17.5761719,14.0527344,35.7089844,17.0615234,54.8134766
	C385.8496094,162.9912109,385.8647461,163.9941406,385.9853516,165.4892578z"/>
<path d="M79.3759766,40.2255859
	c1.2949219,1.3769531,2.390625,2.5419922,3.6806641,3.9140625c-2.2495117,2.6796875-4.4238281,5.2177734-6.5419922,7.8017578
	c-12.1567383,14.8339844-22.3837891,30.9169922-30.9248047,48.0722656
	c-0.9658203,1.9394531-1.9970703,3.7617188-4.3466797,3.0683594c-1.4072266-0.4150391-2.6953125-1.6875-3.7260742-2.8505859
	c-4.7753906-5.3886719-3.7226563-10.3173828,0.3188477-15.9824219C49.5927734,67.7695313,62.9785156,52.9375,79.3759766,40.2255859z
	"/>
</svg>
