<?xml version="1.0" encoding="utf-8"?>
<!-- Generator: Adobe Illustrator 18.0.0, SVG Export Plug-In . SVG Version: 6.00 Build 0)  -->
<!DOCTYPE svg PUBLIC "-//W3C//DTD SVG 1.1//EN" "http://www.w3.org/Graphics/SVG/1.1/DTD/svg11.dtd">
<svg version="1.1" id="Capa_1" xmlns="http://www.w3.org/2000/svg" xmlns:xlink="http://www.w3.org/1999/xlink" x="0px" y="0px" viewBox="0 0 252 144" enable-background="new 0 0 252 144" xml:space="preserve">
<g>
	<g>
		<path d="M147.4,62.3V95l44.5,22.3c2.8,1.4,6.1-0.6,6.1-3.8V68.6L147.4,62.3z"/>
	</g>
</g>
<g>
	<g>
		<path d="M135.2,60.8c-2.6-0.2-4.7,1.7-4.7,4.2v19c0,1.6,0.9,3.1,2.3,3.8l6.1,3.1V61.2L135.2,60.8z"/>
	</g>
</g>
<g>
	<g>
		<path d="M122.1,83.9v-19c0-7.7,6.8-13.5,14.2-12.6l61.1,7.6c-3.2-18.9-14.2-36.4-30.7-47.5
			c-17.9-12-40.5-15.6-61.5-9.8C77.1,10.4,54,41.8,54,71.9v20.2c0,4.9,2.9,9.5,7.6,11.6l93.2,38.4c12.4,5.1,26.8-0.7,32-13.6
			c0.4-1.1,0.9-2.5,1.4-3.8l-59-29.5C124.8,93.1,122.1,88.7,122.1,83.9z M88,93.4c-9.3,0-16.9-7.6-16.9-16.9S78.7,59.6,88,59.6
			s16.9,7.6,16.9,16.9S97.3,93.4,88,93.4z"/>
	</g>
</g>
<g>
	<g>
		<path d="M88,68c-4.7,0-8.4,3.8-8.4,8.4s3.8,8.4,8.4,8.4s8.4-3.8,8.4-8.4S92.7,68,88,68z"/>
	</g>
</g>
</svg>
