<?xml version="1.0" encoding="utf-8"?>
<!-- Generator: Adobe Illustrator 16.0.0, SVG Export Plug-In . SVG Version: 6.00 Build 0)  -->
<!DOCTYPE svg PUBLIC "-//W3C//DTD SVG 1.1//EN" "http://www.w3.org/Graphics/SVG/1.1/DTD/svg11.dtd">
<svg version="1.1" id="Layer_1" xmlns="http://www.w3.org/2000/svg" xmlns:xlink="http://www.w3.org/1999/xlink" x="0px" y="0px" viewBox="0 0 1080 1079.9995117" style="enable-background:new 0 0 1080 1079.9995117;"
	 xml:space="preserve">
<path d="M540,0C242.2441406,0,0,242.2436523,0,540c0,297.7558594,242.2441406,539.9995117,540,539.9995117
	S1080,837.7558594,1080,540C1080,242.2436523,837.7558594,0,540,0z M567.8798828,157.2910156l109.4833984-78.9453125
	c104.9609375,31.425293,195.2949219,97.7304688,256.8769531,185.421875L892.265625,393.9667969l-149.0146484,48.2480469
	L567.8798828,315.4404297V157.2910156z M401.4873047,78.3271484l108.2109375,78.956543v158.159668L337.2255859,441.0292969
	l-151.7490234-49.4072266l-41.2587891-126.7236328C205.8330078,176.6328125,296.0507813,109.8798828,401.4873047,78.3271484z
	 M153.625,827.5488281C93.7021484,747.2294922,58.1816406,647.6875,58.1816406,540
	c0-4.4140625,0.0693359-8.8144531,0.1894531-13.2001953l109.6943359-79.7558594l155.1054688,50.3925781l64.2763672,197.5048828
	L290.796875,827.9746094L153.625,827.5488281z M695.1132813,996.1967773
	C646.4179688,1012.800293,594.2441406,1021.8178711,540,1021.8178711c-55.890625,0-109.578125-9.5996094-159.5341797-27.1816406
	l-42.953125-131.9887695l97.0400391-133.5605469h205.4873047l98.1201172,135.0517578L695.1132813,996.1967773z
	 M785.6582031,830.53125l-94.7783203-130.4511719l65.2802734-200.6689453l154.2431641-50.1162109l111.2910156,81.0214844
	c0.0654297,3.2216797,0.1240234,6.4404297,0.1240234,9.6796875c0,109.1347656-36.4951172,209.8945313-97.890625,290.7636719
	L785.6582031,830.53125z"/>
</svg>
