<?xml version="1.0" encoding="utf-8"?>
<!-- Generator: Adobe Illustrator 16.0.0, SVG Export Plug-In . SVG Version: 6.00 Build 0)  -->
<!DOCTYPE svg PUBLIC "-//W3C//DTD SVG 1.1//EN" "http://www.w3.org/Graphics/SVG/1.1/DTD/svg11.dtd">
<svg version="1.1" id="Layer_1" xmlns="http://www.w3.org/2000/svg" xmlns:xlink="http://www.w3.org/1999/xlink" x="0px" y="0px" viewBox="0 0 1080.0058594 1079.8203125"
	 style="enable-background:new 0 0 1080.0058594 1079.8203125;" xml:space="preserve">
  <path d="M709.1582031,12.4941406C770.4599609,3.3154297,828.4638672,0,880.109375,0
	c27.375,0,54.7441406,0.9648438,81.3349609,2.8632813c61.5126953,4.3945313,111.2109375,54.0927734,115.6054688,115.6054688
	c4.6826172,65.5683594,5.2910156,154.25-9.4257813,252.4853516L709.1582031,12.4941406z M12.3828125,708.8662109
	c-14.71875,98.2353516-14.109375,186.9169922-9.4267578,252.4853516
	c4.3935547,61.5126953,54.0986328,111.2119141,115.6054688,115.6054688
	c26.5849609,1.8984375,53.9472656,2.8632813,81.3349609,2.8632813c0.0117188,0,0.0117188,0,0.0244141,0
	c51.6396484,0,109.6376953-3.3154297,170.9267578-12.4882813L12.3828125,708.8662109z M1054.2617188,442.8388672
	c-29.6953125,133.3544922-90.2373047,277.5751953-207.2099609,402.6855469
	c-0.4648438,0.4941406-0.9404297,0.9697266-1.4355469,1.4345703
	c-124.5488281,116.4482422-268.5048828,177.1708984-402.8837891,207.0166016L25.7441406,636.9824219
	C55.4394531,503.6269531,115.9814453,359.40625,232.9541016,234.296875
	c0.4648438-0.4941406,0.9404297-0.9707031,1.4345703-1.4355469
	C358.9384766,116.4130859,502.8945313,55.6904297,637.2734375,25.8447266L1054.2617188,442.8388672z M763.5341797,445.1884766
	l-43.09375-43.0927734l33.5234375-33.5224609c11.7705078-11.7714844,11.7705078-30.8525391,0-42.6171875
	c-11.7714844-11.7646484-30.8466797-11.7646484-42.6181641,0l-33.5224609,33.5224609l-43.0927734-43.09375
	c-11.7646484-11.7587891-30.8408203-11.7646484-42.6181641,0c-11.7705078,11.7705078-11.7705078,30.8525391,0,42.6171875
	l43.09375,43.09375l-49.2587891,49.2587891l-43.09375-43.09375c-11.7646484-11.7587891-30.8408203-11.7646484-42.6171875,0
	c-11.7705078,11.7714844-11.7705078,30.8525391,0,42.6181641l43.09375,43.0927734l-49.2597656,49.2597656l-43.0927734-43.09375
	c-11.7714844-11.7646484-30.8466797-11.7646484-42.6171875,0c-11.7714844,11.7705078-11.7714844,30.8525391,0,42.6171875
	l43.0927734,43.09375l-49.2587891,49.2587891l-43.09375-43.09375c-11.7705078-11.7646484-30.8457031-11.7646484-42.6171875,0
	c-11.7705078,11.7714844-11.7705078,30.8525391,0,42.6171875l43.09375,43.09375l-33.5224609,33.5224609
	c-11.7705078,11.7714844-11.7705078,30.8525391,0,42.6171875c5.8876953,5.8828125,13.5966797,8.8242188,21.3115234,8.8242188
	s15.4228516-2.9414063,21.3115234-8.8242188l33.5224609-33.5224609l43.09375,43.09375
	c5.8886719,5.8828125,13.5966797,8.8232422,21.3115234,8.8232422s15.4228516-2.9404297,21.3115234-8.8232422
	c11.7714844-11.7705078,11.7714844-30.8525391,0-42.6171875l-43.09375-43.09375l49.2597656-49.2587891l43.09375,43.09375
	c5.8876953,5.8818359,13.5966797,8.8232422,21.3105469,8.8232422c7.7148438,0,15.4238281-2.9414063,21.3125-8.8232422
	c11.7705078-11.7714844,11.7705078-30.8525391,0-42.6181641l-43.09375-43.0927734l49.2597656-49.2597656l43.0927734,43.09375
	c5.8886719,5.8828125,13.5966797,8.8232422,21.3115234,8.8232422c7.7089844,0,15.4238281-2.9404297,21.3125-8.8232422
	c11.7705078-11.7705078,11.7705078-30.8525391,0-42.6171875l-43.09375-43.09375l49.2587891-49.2587891l43.09375,43.09375
	c5.8876953,5.8818359,13.5966797,8.8232422,21.3115234,8.8232422c7.7089844,0,15.4228516-2.9414063,21.3115234-8.8232422
	C775.2988281,476.0410156,775.2988281,456.9599609,763.5341797,445.1884766z"/>
</svg>
