<?xml version="1.0" encoding="utf-8"?>
<!-- Generator: Adobe Illustrator 16.0.0, SVG Export Plug-In . SVG Version: 6.00 Build 0)  -->
<!DOCTYPE svg PUBLIC "-//W3C//DTD SVG 1.1//EN" "http://www.w3.org/Graphics/SVG/1.1/DTD/svg11.dtd">
<svg version="1.1" id="Layer_1" xmlns="http://www.w3.org/2000/svg" xmlns:xlink="http://www.w3.org/1999/xlink" x="0px" y="0px" viewBox="0 0 1076.3359375 1080" style="enable-background:new 0 0 1076.3359375 1080;"
	 xml:space="preserve">
<circle cx="536.3359375" cy="540" r="540"/>
<path d="M10.3955078,582.1972656c69.8330078-66.6904297,184.6416016-87.8662109,267.1650391-49.3330078
	c-73.2470703,104.4707031-127.2089844,223.3476563-157.2753906,351.3662109
	c9.0839844,10.9736328,18.6689453,21.484375,28.5820313,31.6865234c2.71875-2.5644531,4.859375-5.7851563,5.7080078-9.7001953
	c28.3691406-128.90625,82.1376953-248.3427734,155.7324219-352.8515625
	c49.2744141,38.2431641,73.4589844,101.1923828,67.9814453,181.9609375l-0.0761719,1.0410156l0.0380859,1.0605469
	c4.8408203,116.9296875,72.2441406,223.9267578,180.2832031,286.1806641
	c33.9814453,19.5947266,69.5830078,33.2294922,105.4150391,41.0595703
	c31.9765625-7.7529297,62.7949219-18.3603516,92.2636719-31.5126953
	c-58.8027344,4.5517578-121.0566406-9.9130859-178.4316406-42.96875
	c-96.2167969-55.4462891-156.3105469-150.0810547-160.9589844-253.3369141
	c7.6181641-116.9482422-38.7255859-180.7841797-83.3916016-214.9394531
	c28.6787109-37.5107422,60.0175781-72.8613281,93.6904297-105.8398438
	c137.9697266,128.3076172,267.7050781,265.7373047,387.1796875,411.0361328l83.1796875,101.1923828l29.7958984-24.5117188
	l-83.1787109-101.1923828C724.0820313,656.640625,593.8261719,518.5546875,455.296875,389.5712891
	c26.8076172-24.2802734,54.9648438-47.0957031,84.3369141-68.3291016
	c46.0927734,58.2626953,120.2080078,86.8046875,212.8369141,80.7109375
	c87.1523438,3.953125,168.9433594,51.3964844,224.5439453,130.2558594
	c43.2382813,61.328125,65.2431641,134.2666016,63.0449219,202.3066406
	c12.0146484-31.0693359,21.1943359-63.5273438,27.328125-97.0644531
	c-11.4169922-44.5693359-31.1855469-88.2324219-58.8408203-127.4599609
	c-62.7753906-89.0419922-155.90625-142.4824219-255.4970703-146.609375l-1.0615234-0.0390625l-1.0410156,0.0771484
	c-78.4921875,5.2841797-140.6699219-17.5693359-179.2607422-64.4140625
	c99.1669922-65.8994141,210.8896484-114.3642578,330.8466797-140.7856445
	c3.9150391-0.8681641,7.0390625-3.1049805,9.6044922-5.824707c-10.1826172-9.8740234-20.6748047-19.4399414-31.609375-28.4848633
	c-119.3789063,28.0415039-230.7539063,76.9501953-329.9599609,142.8491211
	c-37.5292969-75.3681641-24.3964844-181.2856445,32.1494141-253.9731445l7.8496094-10.0864258
	C572.7470703,0.9257813,554.6572266,0,536.3359375,0v11.8413086
	c-53.4980469,84.6835938-61.4638672,194.9594727-17.8583984,277.1552734
	c-31.9951172,23.0463867-62.5820313,47.8862305-91.6650391,74.3852539
	c-63.0449219-57.6455078-127.5751953-113.6123047-193.8789063-167.284668l-63.9326172-51.7626953
	c-9.4882813,8.8134766-18.6298828,17.9545898-27.4628906,27.4243164l67.1337891,54.3466797
	c64.9736328,52.5922852,128.2304688,107.4023438,190.0605469,163.8710938
	c-35.2734375,34.6757813-68.0976563,71.8583984-98.0683594,111.3173828
	c-2.1982422-1.1191406-4.4355469-2.2763672-6.5371094-3.2597656C202.6542969,455.2011719,82.3505859,473.1552734,0,540h-3.6640625
	c0,17.9355469,0.9257813,35.6396484,2.6230469,53.1132813L10.3955078,582.1972656z"/>
</svg>
