<?xml version="1.0" encoding="utf-8"?>
<!-- Generator: Adobe Illustrator 16.0.0, SVG Export Plug-In . SVG Version: 6.00 Build 0)  -->
<!DOCTYPE svg PUBLIC "-//W3C//DTD SVG 1.1//EN" "http://www.w3.org/Graphics/SVG/1.1/DTD/svg11.dtd">
<svg version="1.1" id="Layer_1" xmlns="http://www.w3.org/2000/svg" xmlns:xlink="http://www.w3.org/1999/xlink" x="0px" y="0px" viewBox="0 0 877.1259766 1080" style="enable-background:new 0 0 877.1259766 1080;"
	 xml:space="preserve">
<g>
	<g>
		<g>
			<path d="M166.4492188,242.4404297c-7.8935547-0.5039063-17.8945313-0.9707031-28.9775391-0.9707031
				c-56.3515625,0-96.0771484,11.7558594-118.0947266,34.9306641
				C5.4941406,291.0292969-0.9804688,309.4648438,0.1201172,330.2880859v142.78125
				c0,18.9199219,6.9228516,37.0947266,19.3496094,51.0888672l171.8339844,197.1357422
				c3.65625,4.1796875,8.8066406,6.4189453,14.1054688,6.4189453c2.4638672,0,4.9453125-0.4853516,7.3144531-1.4931641
				c7.4453125-3.171875,11.9980469-10.7666016,11.2705078-18.8271484l-40.1357422-447.9912109
				C183.0185547,250.2392578,175.6298828,243.0185547,166.4492188,242.4404297z"/>
			<path d="M541.2587891,541.1191406c-71.9511719,0-130.5039063,54.3173828-130.5039063,121.0996094
				l-0.1113281,380.4628906c0,8.5273438,10.3925781,18.2294922,18.6591797,20.3193359
				C476.6416016,1075.0742188,507.9697266,1080,541.2587891,1080c33.0449219,0,59.2431641-6.5117188,111.9550781-18.6591797
				c8.4716797-1.9404297,18.6591797-9.9638672,18.6591797-18.6591797V664.3642578
				C671.8730469,596.4072266,613.2832031,541.1191406,541.2587891,541.1191406z M610.4287109,973.5117188
				c7.2949219,7.2949219,7.2949219,19.0878906,0,26.3837891c-3.6386719,3.6386719-8.4160156,5.4677734-13.1923828,5.4677734
				s-9.5537109-1.8291016-13.1923828-5.4677734l-42.7851563-42.7861328l-42.7861328,42.7861328
				c-3.6386719,3.6386719-8.4150391,5.4677734-13.1923828,5.4677734c-4.7763672,0-9.5537109-1.8291016-13.1914063-5.4677734
				c-7.296875-7.2958984-7.296875-19.0878906,0-26.3837891l42.7851563-42.7861328l-42.7851563-42.7861328
				c-7.296875-7.2949219-7.296875-19.0878906,0-26.3837891c7.2949219-7.2958984,19.0878906-7.2958984,26.3837891,0
				l42.7861328,42.7861328l42.7851563-42.7861328c7.2958984-7.2958984,19.0888672-7.2958984,26.3847656,0
				c7.2949219,7.2958984,7.2949219,19.0888672,0,26.3837891l-42.7861328,42.7861328L610.4287109,973.5117188z
				 M610.4287109,751.8388672c7.2949219,7.2958984,7.2949219,19.0888672,0,26.3847656
				c-3.6386719,3.6376953-8.4160156,5.4667969-13.1923828,5.4667969s-9.5537109-1.8291016-13.1923828-5.4667969
				L541.2587891,735.4375l-42.7861328,42.7861328c-3.6386719,3.6376953-8.4150391,5.4667969-13.1923828,5.4667969
				c-4.7763672,0-9.5537109-1.8291016-13.1914063-5.4667969c-7.296875-7.2958984-7.296875-19.0888672,0-26.3847656
				l42.7851563-42.7861328l-42.7851563-42.7851563c-7.296875-7.2958984-7.296875-19.0888672,0-26.3847656
				c7.2949219-7.2958984,19.0878906-7.2949219,26.3837891,0l42.7861328,42.7861328l42.7851563-42.7861328
				c7.2958984-7.2949219,19.0888672-7.2949219,26.3847656,0c7.2949219,7.2958984,7.2949219,19.0888672,0,26.3847656
				l-42.7861328,42.7851563L610.4287109,751.8388672z"/>
			<path d="M812.2285156,766.0009766c-5.5234375-3.3769531-12.4638672-3.6386719-18.2294922-0.6708984
				c-15.5810547,7.9853516-44.1855469,20.5244141-84.7880859,31.2353516v273.3027344
				c0,2.2763672-0.2988281,4.4775391-0.5595703,6.6796875c68.2734375-19.3867188,103.5771484-46.5546875,105.3681641-47.9726563
				c4.515625-3.5263672,7.1464844-8.9384766,7.1464844-14.6855469v-231.953125
				C821.1474609,775.4238281,817.7705078,769.3974609,812.2285156,766.0009766z"/>
			<path d="M373.4179688,796.0615234c-39.875-10.8222656-68.9648438-23.3613281-85.1044922-31.3476563
				c-5.7851563-2.8359375-12.6328125-2.5185547-18.1191406,0.8769531
				c-5.4853516,3.4150391-8.8251953,9.4042969-8.8251953,15.8603516v232.4384766
				c0,6.4560547,3.3398438,12.4462891,8.8066406,15.8603516c2.0341797,1.2695313,41.2558594,25.2832031,103.5410156,44.8017578
				c-0.1308594-1.5673828-0.3916016-3.0976563-0.3916016-4.6835938L373.4179688,796.0615234z"/>
			<path d="M803.8505859,40.6767578C767.9501953,14.0693359,723.2607422,0,674.6533203,0h-300.078125
				c-9.0498047,0-17.8388672,1.1201172-26.1416016,3.3027344c-35.6953125,9.3857422-152.1669922,50.6416016-152.0927734,188.6269531
				l46.4619141,518.7841797c0.5224609,5.765625,3.6757813,10.953125,8.5458984,14.0693359
				c2.1464844,1.3623047,45.0439453,28.2685547,122.0693359,47.7119141l0.0371094-110.2763672
				c0-87.3447266,75.2900391-158.3994141,167.8222656-158.3994141c92.5869141,0,167.9335938,72.0253906,167.9335938,160.5634766
				v108.5039063c79.5439453-19.4619141,120.5205078-47.0585938,122.5351563-48.4580078
				c4.6650391-3.2099609,7.6132813-8.359375,8.0234375-14.0322266l37.3564453-520.1083984
				C877.1259766,127.9287109,851.7861328,76.2041016,803.8505859,40.6767578z M765.1699219,317.2080078
				c-10.2998047,0-18.6591797-8.3408203-18.6591797-18.6591797c0-92.6064453-75.3466797-167.9335938-167.9335938-167.9335938
				c-10.2998047,0-18.6591797-8.3408203-18.6591797-18.6591797s8.359375-18.6601563,18.6591797-18.6601563
				c113.1679688,0,205.2519531,92.0839844,205.2519531,205.2529297
				C783.8291016,308.8671875,775.4697266,317.2080078,765.1699219,317.2080078z"/>
		</g>
	</g>
</g>
</svg>
