<?xml version="1.0" encoding="utf-8"?>
<!-- Generator: Adobe Illustrator 16.0.0, SVG Export Plug-In . SVG Version: 6.00 Build 0)  -->
<!DOCTYPE svg PUBLIC "-//W3C//DTD SVG 1.1//EN" "http://www.w3.org/Graphics/SVG/1.1/DTD/svg11.dtd">
<svg version="1.1" id="Layer_1" xmlns="http://www.w3.org/2000/svg" xmlns:xlink="http://www.w3.org/1999/xlink" x="0px" y="0px" viewBox="0 0 810 1080" style="enable-background:new 0 0 810 1080;" xml:space="preserve">
<g>
	<g>
		<path d="M807.6923828,632.324707c-12.3710938-161.0693359-87.3642578-262.0048828-153.5224609-351.0756836
			C592.9091797,198.7890625,540,127.5805664,540,22.5380859c0-8.4375-4.7246094-16.1494141-12.2177734-20.015625
			c-7.515625-3.8896484-16.5458984-3.2529297-23.3779297,1.7124023
			c-99.3603516,71.0986328-182.2626953,190.9301758-211.2226563,305.2666016
			c-20.1044922,79.6015625-22.7636719,169.0898438-23.1376953,228.1923828
			C178.2861328,518.0952148,157.5009766,380.8432617,157.28125,379.347168
			c-1.0332031-7.1191406-5.3828125-13.3144531-11.7109375-16.6972656
			c-6.3935547-3.3398438-13.9091797-3.5820313-20.3916016-0.3740234
			c-4.8115234,2.3291016-118.1035156,59.8935547-124.6953125,289.7333984C0.0214844,659.6557617,0,667.3256836,0,674.9936523
			c0,223.2919922,181.6914063,404.9726563,405,404.9726563c0.3076172,0.0205078,0.6367188,0.0644531,0.9003906,0
			c0.0888672,0,0.1757813,0,0.2851563,0C628.9462891,1079.3266602,810,897.8911133,810,674.9936523
			C810,663.7651367,807.6923828,632.324707,807.6923828,632.324707z M405,1034.9682617
			c-74.4443359,0-135-64.5068359-135-143.7998047c0-2.7021484-0.0214844-5.4277344,0.1748047-8.7666016
			c0.9013672-33.4404297,7.2519531-56.2675781,14.2177734-71.4511719
			c13.0527344,28.0361328,36.3867188,53.8085938,74.2900391,53.8085938c12.4365234,0,22.5-10.0644531,22.5-22.4990234
			c0-32.0332031,0.6611328-68.9892578,8.6357422-102.3427734c7.0986328-29.5732422,24.0595703-61.0371094,45.5507813-86.2587891
			c9.5566406,32.7373047,28.1914063,59.2333984,46.3847656,85.0947266
			c26.0380859,36.9980469,52.953125,75.2519531,57.6787109,140.484375
			c0.2841797,3.8662109,0.5712891,7.7558594,0.5712891,11.9306641C540,970.4594727,479.4443359,1034.9682617,405,1034.9682617z"/>
	</g>
</g>
</svg>
