<?xml version="1.0" encoding="utf-8"?>
<!-- Generator: Adobe Illustrator 16.0.0, SVG Export Plug-In . SVG Version: 6.00 Build 0)  -->
<!DOCTYPE svg PUBLIC "-//W3C//DTD SVG 1.1//EN" "http://www.w3.org/Graphics/SVG/1.1/DTD/svg11.dtd">
<svg version="1.1" id="Layer_1" xmlns="http://www.w3.org/2000/svg" xmlns:xlink="http://www.w3.org/1999/xlink" x="0px" y="0px" viewBox="0 0 1080 1012.8325195" style="enable-background:new 0 0 1080 1012.8325195;"
	 xml:space="preserve">
<g>
	<circle cx="677.2880859" cy="732.2036133" r="36.6103516"/>
	<circle cx="805.4238281" cy="860.3393555" r="36.6103516"/>
	<circle cx="805.4238281" cy="604.0678711" r="36.6103516"/>
	<path d="M329.4912109,677.2885742v-54.9160156h-73.2197266v54.9160156
		c0,10.1220703-8.2011719,18.3046875-18.3056641,18.3046875h-54.9150391v73.2207031h54.9150391
		c10.1044922,0,18.3056641,8.1816406,18.3056641,18.3046875v54.9150391h73.2197266v-54.9150391
		c0-10.1230469,8.2011719-18.3046875,18.3056641-18.3046875h54.9150391v-73.2207031H347.796875
		C337.6923828,695.5932617,329.4912109,687.4106445,329.4912109,677.2885742z"/>
	<path d="M809.9267578,457.6274414h-242.46875V247.1186523
		c0-35.3286133,28.7382813-64.0673828,64.0673828-64.0673828s64.0683594,28.7387695,64.0683594,64.0673828v64.0683594
		c0,50.4667969,41.0576172,91.5253906,91.5253906,91.5253906c50.4667969,0,91.5253906-41.0585938,91.5253906-91.5253906V18.3051758
		C878.6445313,8.1826172,870.4433594,0,860.3388672,0s-18.3046875,8.1826172-18.3046875,18.3051758v292.8818359
		c0,30.2763672-24.6386719,54.9150391-54.9150391,54.9150391c-30.2773438,0-54.9160156-24.6386719-54.9160156-54.9150391
		v-64.0683594c0-55.5009766-45.1582031-100.6777344-100.6777344-100.6777344s-100.6777344,45.1767578-100.6777344,100.6777344
		v210.5087891H274.0634766C122.9375,457.6274414,0,580.5639648,0,731.690918
		c0,130.8632813,95.3515625,272.2333984,237.2890625,274.0634766l3.8251953,0.0185547
		c38.84375,0,104.3574219-6.5712891,171.7382813-25.0234375c78.1259766-21.4169922,180.3789063-21.3984375,258.2304688-0.0175781
		c66.3193359,18.25,141.1689453,25.0410156,172.7626953,25.0410156l2.8925781-0.0185547
		C958.9296875,1003.8325195,1080,898.5053711,1080,731.690918C1080,580.5639648,958.8388672,457.6274414,809.9267578,457.6274414z
		 M805.4238281,530.847168c40.3808594,0,73.2207031,32.8398438,73.2207031,73.2207031s-32.8398438,73.2207031-73.2207031,73.2207031
		s-73.2207031-32.8398438-73.2207031-73.2207031S765.0429688,530.847168,805.4238281,530.847168z M439.3222656,787.1186523
		c0,10.1230469-8.2011719,18.3056641-18.3056641,18.3056641h-54.9150391v54.9150391
		c0,10.1220703-8.2001953,18.3046875-18.3046875,18.3046875H237.9658203c-10.1044922,0-18.3046875-8.1826172-18.3046875-18.3046875
		v-54.9150391h-54.9150391c-10.1044922,0-18.3056641-8.1826172-18.3056641-18.3056641V677.2885742
		c0-10.1230469,8.2011719-18.3056641,18.3056641-18.3056641h54.9150391v-54.9150391
		c0-10.1230469,8.2001953-18.3046875,18.3046875-18.3046875H347.796875c10.1044922,0,18.3046875,8.1816406,18.3046875,18.3046875
		v54.9150391h54.9150391c10.1044922,0,18.3056641,8.1826172,18.3056641,18.3056641V787.1186523z M512.5419922,567.4575195
		c-10.1044922,0-18.3046875-8.1816406-18.3046875-18.3046875s8.2001953-18.3056641,18.3046875-18.3056641h84.7714844
		c10.1044922,0,18.3046875,8.1826172,18.3046875,18.3056641s-8.2001953,18.3046875-18.3046875,18.3046875H512.5419922z
		 M677.2880859,805.4243164c-40.3808594,0-73.2207031-32.8398438-73.2207031-73.2207031
		s32.8398438-73.2207031,73.2207031-73.2207031s73.2207031,32.8398438,73.2207031,73.2207031
		S717.6689453,805.4243164,677.2880859,805.4243164z M805.4238281,933.559082
		c-40.3808594,0-73.2207031-32.8388672-73.2207031-73.2197266s32.8398438-73.2207031,73.2207031-73.2207031
		s73.2207031,32.8398438,73.2207031,73.2207031S845.8046875,933.559082,805.4238281,933.559082z M933.5595703,805.4243164
		c-40.3818359,0-73.2207031-32.8398438-73.2207031-73.2207031s32.8388672-73.2207031,73.2207031-73.2207031
		c40.3808594,0,73.2197266,32.8398438,73.2197266,73.2207031S973.9404297,805.4243164,933.5595703,805.4243164z"/>
	<circle cx="933.5595703" cy="732.2036133" r="36.6103516"/>
</g>
</svg>
